<svg width="20" height="20" viewBox="0 0 20 20" fill="none" xmlns="http://www.w3.org/2000/svg">
<g clip-path="url(#clip0_201:419)">
<path d="M11.769 19.2944L15.0007 16.0619C15.1569 15.9056 15.2447 15.6937 15.2447 15.4727C15.2447 15.2518 15.1569 15.0399 15.0007 14.8836C14.8444 14.7274 14.6325 14.6396 14.4115 14.6396C14.1905 14.6396 13.9786 14.7274 13.8223 14.8836L10.8582 17.8461L10.8582 0.857747C10.8582 0.636734 10.7704 0.424772 10.6141 0.268492C10.4578 0.112211 10.2459 0.0244141 10.0248 0.0244141C9.80383 0.0244141 9.59187 0.112211 9.43559 0.268492C9.27931 0.424772 9.19152 0.636734 9.19152 0.857747L9.19151 17.8969L6.17902 14.8836C6.10162 14.8061 6.00971 14.7446 5.90855 14.7027C5.80738 14.6608 5.69894 14.6392 5.58943 14.6392C5.47992 14.6392 5.37148 14.6608 5.27031 14.7027C5.16915 14.7446 5.07724 14.8061 4.99985 14.8836C4.84362 15.0399 4.75586 15.2518 4.75586 15.4727C4.75586 15.6937 4.84362 15.9056 4.99985 16.0619L8.23235 19.2952C8.70221 19.7627 9.33807 20.025 10.0009 20.0249C10.6636 20.0247 11.2994 19.7621 11.769 19.2944Z" fill="white"/>
</g>
<defs>
<clipPath id="clip0_201:419">
<rect width="20" height="20" fill="white"/>
</clipPath>
</defs>
</svg>
