<svg width="360" height="652" viewBox="0 0 360 652" fill="none" xmlns="http://www.w3.org/2000/svg">
<g clip-path="url(#clip0_504_1003)">
<path d="M360 -68H0V652H360V-68Z" fill="#FCFAF7"/>
<path d="M176.207 95.752C176.207 95.752 149.152 97.788 152.434 114.674C154.862 127.195 174.81 128.512 189.835 122.244" stroke="#00B998" stroke-width="4" stroke-linecap="round" stroke-linejoin="round"/>
<path d="M134.233 36.2041C153.615 39.3781 172.201 46.0281 189.051 56.0981L175.003 87.6301" stroke="#00B998" stroke-width="4" stroke-linecap="round" stroke-linejoin="round"/>
<path d="M162.311 3.08694C134.289 37.668 102.37 68.899 67.1865 96.16C57.8693 83.492 48.721 69.809 46.8537 54.196C44.9863 38.583 52.816 20.6899 67.9198 16.2946C80.7274 12.5611 94.2819 19.3145 104.602 27.7695C123.863 11.6374 139.13 5.87624 162.306 3.08374" stroke="#00B998" stroke-width="4" stroke-linecap="round" stroke-linejoin="round"/>
<path d="M94.9783 92.4861C95.8972 97.2861 96.6797 102.254 95.6295 107.025C94.5792 111.797 91.2796 116.373 86.5488 117.572C81.3596 118.881 75.869 115.778 72.7484 111.423C69.6277 107.068 68.3803 101.702 67.1975 96.4801" stroke="#00B998" stroke-width="4" stroke-linecap="round" stroke-linejoin="round"/>
<path d="M87.7344 109.943C93.0172 115.186 99.5639 120.858 106.893 119.558C112.163 118.617 116.172 114.185 118.659 109.436C122.749 101.582 123.85 92.511 121.758 83.906" stroke="#00B998" stroke-width="4" stroke-linecap="round" stroke-linejoin="round"/>
<path d="M86.3922 125.543L71.9551 145.099" stroke="#00B998" stroke-width="4" stroke-linecap="round" stroke-linejoin="round"/>
<path d="M129.015 70.718C130.83 70.112 132.483 69.0981 133.846 67.7551C135.21 66.4111 136.247 64.773 136.88 62.967" stroke="#00B998" stroke-width="4" stroke-linecap="round" stroke-linejoin="round"/>
<path d="M207.238 104.608L170.863 113.368L211.357 60.564L221.439 71.56" stroke="#00B998" stroke-width="4" stroke-linecap="round" stroke-linejoin="round"/>
<path d="M266.446 145.561C273.604 131.839 278.308 115.982 274.901 100.89C271.495 85.7989 259.904 76.6229 242.582 72.8649C236.673 71.5819 210.375 68.9949 210.634 76.8149C210.809 82.0749 232.87 86.3489 236.659 87.1409C240.447 87.9329 245.147 88.8469 249.51 89.7979C239.619 87.6999 212.836 80.8829 208.491 87.9229C204.841 97.8549 235.243 99.8549 244.552 102.003C236.088 101.273 208.119 94.5789 206.907 103.251C205.288 111.54 231.729 115.262 241.935 115.167" stroke="#00B998" stroke-width="4" stroke-linecap="round" stroke-linejoin="round"/>
<path d="M242.855 442.599C236.512 460.547 233.488 479.434 234.182 498.458L267.526 501.229" stroke="#F40934" stroke-width="4" stroke-linecap="round" stroke-linejoin="round"/>
<path d="M179.051 475.704C184.233 489.018 189.953 503.056 201.452 511.533C206.094 514.957 212.71 517.226 217.463 513.962C220.375 511.962 221.793 508.301 221.94 504.771C222.086 501.242 221.145 497.765 220.213 494.355C218.031 486.391 215.849 478.426 213.667 470.46" stroke="#F40934" stroke-width="4" stroke-linecap="round" stroke-linejoin="round"/>
<path d="M185.437 489.376L214.427 479.725" stroke="#F40934" stroke-width="4" stroke-linecap="round" stroke-linejoin="round"/>
<path d="M213.986 516.454L229.208 546.35" stroke="#F40934" stroke-width="4" stroke-linecap="round" stroke-linejoin="round"/>
<path d="M206.619 557.744L242.051 540.057" stroke="#F40934" stroke-width="4" stroke-linecap="round" stroke-linejoin="round"/>
<path d="M272.845 511.196C279.763 512.511 287.317 509.671 291.627 504.096C295.937 498.52 296.812 490.499 293.795 484.134" stroke="#F40934" stroke-width="4" stroke-linecap="round" stroke-linejoin="round"/>
<path d="M201.626 451.004C244.08 443.331 285.507 430.784 325.083 413.611C318.67 399.784 311.312 385.628 298.917 376.757C286.523 367.885 267.669 366.198 256.899 376.972C247.752 386.111 247.166 400.777 249.534 413.49C226.848 422.327 214.824 432.611 201.637 451.003" stroke="#F40934" stroke-width="4" stroke-linecap="round" stroke-linejoin="round"/>
<path d="M308.988 435.509C312.638 438.538 316.501 441.511 321.036 442.844C325.571 444.177 331.008 443.517 334.235 440.048C337.768 436.251 337.693 430.132 335.452 425.458C333.21 420.784 329.226 417.21 325.346 413.77" stroke="#F40934" stroke-width="4" stroke-linecap="round" stroke-linejoin="round"/>
<path d="M327.202 437.497C329.19 444.433 330.954 452.639 326.43 458.262C323.174 462.311 317.537 463.638 312.34 463.543C303.76 463.353 295.539 460.057 289.205 454.266" stroke="#F40934" stroke-width="4" stroke-linecap="round" stroke-linejoin="round"/>
<path d="M262.454 450.314L262.902 457.727" stroke="#F40934" stroke-width="4" stroke-linecap="round" stroke-linejoin="round"/>
<path d="M318.633 479.704L317.949 503.253" stroke="#F40934" stroke-width="4" stroke-linecap="round" stroke-linejoin="round"/>
<path d="M151.885 380.846C162.119 398.747 166.536 419.386 164.527 439.907L129.382 446.703" stroke="#7100FF" stroke-width="4" stroke-linecap="round" stroke-linejoin="round"/>
<path d="M132.672 390.221V400.964" stroke="#7100FF" stroke-width="4" stroke-linecap="round" stroke-linejoin="round"/>
<path d="M98.93 390.358C93.9161 386.301 88.7401 382.152 82.5616 380.272C76.3831 378.392 68.9132 379.305 64.6958 384.188C60.3578 389.206 60.6469 396.764 62.4977 403.133C67.757 421.226 84.3958 435.461 103.087 437.848" stroke="#7100FF" stroke-width="4" stroke-linecap="round" stroke-linejoin="round"/>
<path d="M82.8786 396.734C80.8677 402.141 82.3317 408.671 86.4576 412.704" stroke="#7100FF" stroke-width="4" stroke-linecap="round" stroke-linejoin="round"/>
<path d="M116.878 452.245C116.232 453.524 115.573 454.857 115.539 456.29C115.506 457.723 116.302 459.282 117.687 459.644C119.854 460.212 121.533 457.799 122.471 455.766C123.408 453.732 124.176 450.841 122.319 449.55C121.071 448.682 119.257 449.194 118.197 450.28C117.136 451.365 116.646 452.869 116.188 454.316" stroke="#7100FF" stroke-width="4" stroke-linecap="round" stroke-linejoin="round"/>
<path d="M111.615 359.412C95.7939 349.463 74.2327 349.536 58.4777 359.593C53.6343 362.685 49.2361 366.755 46.7905 371.956C44.3449 377.157 44.1119 383.602 47.1398 388.493C34.8244 393.746 26.9138 407.789 28.8062 421.045C30.6986 434.3 42.2195 445.571 55.5143 447.169C43.6606 451.178 31.3183 455.487 22.6568 464.525C13.9953 473.563 10.4996 488.856 18.3562 498.599C24.1229 505.751 34.4003 507.957 43.4465 506.354C52.4927 504.75 60.6176 499.969 68.4369 495.149" stroke="#7100FF" stroke-width="4" stroke-linecap="round" stroke-linejoin="round"/>
<path d="M32.8737 356.948L20.9307 355.585" stroke="#7100FF" stroke-width="4" stroke-linecap="round" stroke-linejoin="round"/>
<path d="M28.2509 378.827H14.9749" stroke="#7100FF" stroke-width="4" stroke-linecap="round" stroke-linejoin="round"/>
<path d="M20.2839 401.89H9" stroke="#7100FF" stroke-width="4" stroke-linecap="round" stroke-linejoin="round"/>
<path d="M90.1873 453.175C92.9511 460.282 97.7646 466.409 104.017 470.776" stroke="#7100FF" stroke-width="4" stroke-linecap="round" stroke-linejoin="round"/>
<path d="M304.978 64.27L308.244 66L311.337 67.636C315.053 61.555 319.072 55.583 322.784 49.499C323.49 48.346 325.15 46.407 324.1 45.554C322.947 44.617 322.318 44.312 321.614 43.848L308.124 35C304.52 44.569 300.312 51.182 294.205 57.713L296.136 58.892L287 54.106" stroke="#7100FF" stroke-width="4" stroke-linecap="round" stroke-linejoin="round"/>
<path d="M333.956 190.251C330.124 191.599 327.145 191.192 322.768 189C323.132 197.076 321.855 205.143 319.014 212.712C320.602 213.013 318.263 212.727 321.77 213.136C318.066 212.699 316.701 212.549 313 212.11" stroke="#7100FF" stroke-width="4" stroke-linecap="round" stroke-linejoin="round"/>
<path d="M13.0007 272.251C16.8333 273.599 19.8116 273.192 24.189 271C23.825 279.076 25.1021 287.143 27.9431 294.712C26.3554 295.013 28.6935 294.727 25.1874 295.136C28.8906 294.699 30.2558 294.549 33.9569 294.11" stroke="#7100FF" stroke-width="4" stroke-linecap="round" stroke-linejoin="round"/>
<path d="M204.46 389.167L200.072 389.743L195.917 390.29C194.287 381.909 192.271 373.529 190.641 365.15C190.331 363.56 189.278 360.698 190.813 360.17C192.496 359.602 193.331 359.521 194.317 359.297L213.153 355C213.208 367.248 215.158 376.427 219.283 386.305L216.625 386.822L228.88 385.266" stroke="#7100FF" stroke-width="4" stroke-linecap="round" stroke-linejoin="round"/>
<path d="M396.886 288.679C388.904 272.672 373.976 260.269 356.784 255.366C345.954 252.278 333.979 252.166 323.764 256.86C313.549 261.554 305.473 271.53 304.779 282.775C304.085 294.02 311.865 305.696 322.916 307.856C326.595 308.579 331.612 307.188 331.712 303.43C331.772 300.789 329.225 298.869 326.808 297.803C314.576 292.444 299.027 297.823 291.782 309.008C284.537 320.194 285.557 335.781 293.242 346.71" stroke="#FFD400" stroke-width="4" stroke-miterlimit="10" stroke-linecap="round"/>
<path d="M39.5246 246.875C51.2499 229.333 55.2179 206.786 50.1809 186.308C47.0062 173.408 40.1145 161.078 29.3291 153.362C18.5438 145.645 3.60047 143.212 -8.32324 149.08" stroke="#FFD400" stroke-width="4" stroke-miterlimit="10" stroke-linecap="round"/>
</g>
<defs>
<clipPath id="clip0_504_1003">
<rect width="360" height="720" fill="white" transform="translate(0 -68)"/>
</clipPath>
</defs>
</svg>
