<svg width="25" height="23" viewBox="0 0 25 23" fill="none" xmlns="http://www.w3.org/2000/svg">
<path d="M18 0.916992C16.8739 0.934507 15.7724 1.24885 14.8067 1.82826C13.841 2.40768 13.0453 3.23166 12.5 4.21699C11.9546 3.23166 11.1589 2.40768 10.1932 1.82826C9.2275 1.24885 8.12601 0.934507 6.99996 0.916992C5.2049 0.994983 3.51366 1.78025 2.29574 3.10122C1.07782 4.4222 0.432208 6.17152 0.499958 7.96699C0.499958 12.514 5.28596 17.48 9.29996 20.847C10.1962 21.6001 11.3293 22.013 12.5 22.013C13.6706 22.013 14.8037 21.6001 15.7 20.847C19.714 17.48 24.5 12.514 24.5 7.96699C24.5677 6.17152 23.9221 4.4222 22.7042 3.10122C21.4863 1.78025 19.795 0.994983 18 0.916992ZM14.415 19.317C13.8789 19.7684 13.2007 20.0159 12.5 20.0159C11.7992 20.0159 11.121 19.7684 10.585 19.317C5.44696 15.006 2.49996 10.87 2.49996 7.96699C2.4316 6.70171 2.86632 5.46072 3.70932 4.51469C4.55232 3.56866 5.73519 2.99434 6.99996 2.91699C8.26472 2.99434 9.4476 3.56866 10.2906 4.51469C11.1336 5.46072 11.5683 6.70171 11.5 7.96699C11.5 8.23221 11.6053 8.48656 11.7929 8.6741C11.9804 8.86164 12.2347 8.96699 12.5 8.96699C12.7652 8.96699 13.0195 8.86164 13.2071 8.6741C13.3946 8.48656 13.5 8.23221 13.5 7.96699C13.4316 6.70171 13.8663 5.46072 14.7093 4.51469C15.5523 3.56866 16.7352 2.99434 18 2.91699C19.2647 2.99434 20.4476 3.56866 21.2906 4.51469C22.1336 5.46072 22.5683 6.70171 22.5 7.96699C22.5 10.87 19.553 15.006 14.415 19.313V19.317Z" fill="#5100B8"/>
</svg>
