<svg width="1360" height="723" fill="none" xmlns="http://www.w3.org/2000/svg"><circle cx="240" cy="240" r="240" fill="#FFD400"/><path d="M257.461 153.58c2.621-9.471 10.013-17.492 19.243-20.88M256.5 116.099c-40.898 17.001-83.585 29.137-127.215 36.166-2.05-15.76-3.47-32.334 2.366-47.076 5.837-14.7426 21.199-26.7774 36.434-23.3291 12.926 2.9281 21.487 15.506 26.424 28.0201 24.457-4.915 40.494-2.59 61.991 6.219ZM168.5 152.265c-3.522 9.116-12.286 16.004-22 17.292 1.992 1.338 3.653 3.11 4.856 5.182 1.204 2.073 1.918 4.391 2.09 6.779.135 2.391-.277 4.781-1.206 6.99-.929 2.208-2.349 4.177-4.154 5.757M183.917 200.265c-1.013 2.185-1.498 4.648-1.406 7.127.093 2.479.76 4.884 1.932 6.959 1.221 2.038 2.892 3.655 4.838 4.681 1.946 1.026 4.095 1.423 6.219 1.148" stroke="#3B3748" stroke-width="4" stroke-linecap="round" stroke-linejoin="round"/><path d="M213.916 132.265c13.921 17.972 22.163 40.027 23.584 63.115l-36 13.885M197.5 150.265l-2 13M128.5 151.866c-9.879-3.799-22.089-.646-28.7531 7.431-6.6646 8.078-7.2472 20.413-1.3705 29.047-11.4546-5.885-27.1522.716-32.0487 12.43-4.8965 11.713.4687 26.171 11.0494 33.454 10.5807 7.282 25.1789 7.73 37.0389 2.667M110.5 117.265l-17-2M99.5 96.2649l15 4.0001M122.5 86.2649l-15-9M378.272 63.6655c-1.75-6.1237-.003-13.1213 4.417-17.7115 4.421-4.5901 11.353-6.5966 17.542-5.0818 4.26 1.041 8.281 3.8963 9.717 8.0349 1.436 4.1387-.44 9.4419-4.556 10.9535-3.098 1.1376-6.729-.0484-9.071-2.3755-2.342-2.3271-3.544-5.5923-4.017-8.8566-1.138-7.8305 1.764-16.148 7.532-21.5601 5.769-5.4122 14.246-7.8081 21.995-6.1928M308.775 109.116c-3.564-14.1616-1.703-29.7125 4.511-38.4957 3.22-4.5495 9.487-8.1793 14.92-6.5661 3.304.98 8.49 5.941 9.026 13.1683 1.149 15.4512-14.571 28.5425-21.264 39.4275 8.417-4.413 17.204-8.759 26.681-9.444 9.477-.685 19.904 3.15 24.309 11.565 4.636 8.86.865 20.755-7.372 26.43-8.236 5.676-19.752 5.406-28.5.537-8.748-4.869-14.799-13.752-17.643-23.336 5.178 12.39 6.164 26.132 2.807 39.134-1.795 6.853-6.647 14.562-13.692 13.806-7.762-.83-10.393-10.854-9.962-18.645.792-13.922 5.124-27.411 12.585-39.194-10.308.17-21.337.135-29.905-5.593-8.567-5.728-12.442-19.4504-4.795-26.3714 6.723-6.075 16.808-6.1046 24.353.3984 6.866 5.9149 12.351 14.252 13.933 23.175" stroke="#3B3748" stroke-width="4" stroke-linecap="round" stroke-linejoin="round"/><path d="M318.874 139.744c11.478 18.897 18.257 40.441 20.268 62.439M339.152 197.299c12.557-32.019 39.778-57.952 72.379-68.955-15.961 28.954-42.042 55.782-72.379 68.955ZM336.516 221.583c-3.48 4.381-7.42 8.691-10.09 11.911 6.815-4.716 20.067-25.806 26.345-22.292 11.637 7.43-45.893 89.475-119.336 86.74" stroke="#3B3748" stroke-width="4" stroke-linecap="round" stroke-linejoin="round"/><path d="M207.005 250.299c67.247 11.098 112.269-62.048 121.969-49.837 3.481 3.986-9.719 18.481-17.205 26.035 10.768-7.827 26.246-27.086 30.748-22.41 3.997 3.203-.407 10.444-6.003 17.495" stroke="#3B3748" stroke-width="4" stroke-linecap="round" stroke-linejoin="round"/><circle cx="1120" cy="480" r="240" fill="#FFD400"/><path d="M1124.5 415c-3.27 6.289-9.8 10.898-17 12M920.5 318.291c3.177 2.023 6.737 3.367 10.456 3.947 3.719.581 7.517.387 11.158-.571 3.396-.915 6.812-2.695 8.442-5.817 1.791-3.434.766-8.117-2.352-10.407-3.119-2.29-7.957-1.808-10.496 1.115-3.553 4.085-1.828 10.582 1.264 15.033 6.278 9.041 17.588 14.308 28.528 13.282M1162.5 466c-84.27 13.145-160.13-10.068-159.32 9.234 2.03 7.522 23.2 9.024 37.23 11.121-17.76.213-45.135-6.246-45.593 3.462-.918 11.112 29.473 10.612 43.623 14.026-11.06.387-47.978-9.945-48.907 1.686-2.236 19.556 108.207 34.669 186.967 18.895" stroke="#3B3748" stroke-width="4" stroke-linecap="round" stroke-linejoin="round"/><path d="M1134.56 466c-.71-20.129 5.36-46.132 14.94-64M1163.5 415l-1 12M1162.5 382.552c10.18-18.362 35.01-26.72 54.07-18.216 19.07 8.504 29.64 32.684 23.03 52.64 8.78-4.636 20.96-.76 25.52 8.124 4.56 8.884.68 21.157-8.14 25.729 16.71 3.667 34.13 7.673 47.27 18.724 13.14 11.05 20.27 31.451 11.14 46.042-8.48 13.539-27.26 16.756-42.65 12.872-19.63-4.965-36.62-19.622-44.54-38.422" stroke="#3B3748" stroke-width="4" stroke-linecap="round" stroke-linejoin="round"/><path d="M1190.5 397c3.4 13.736 14.56 25.17 28 28.705-6.06 3.106-10.56 9.211-11.8 16.017-1.24 6.806.8 14.155 5.37 19.278M1026.5 303l-3-13M1039.5 290v12M1051.5 304l4-14M1063.5 467l3-25M1023.5 442l3 24M1061.5 335l-6.3 51h-32.18l-6.52-51M1120.5 469v-27M1082.5 442l2 26M1029.5 394l-6.06 43H991.5v-43M1001.5 486l4-40M967.985 446l-1.485 47h29M1087.23 392l1.27 45h-31.39l-6.61-45M1016.5 355l40-1M991.5 410l33 5M1054.5 410l34-2M967.5 455l37 3M1026.5 453l38-2M1085.5 458l34-5" stroke="#3B3748" stroke-width="4" stroke-linecap="round" stroke-linejoin="round"/><circle cx="736.5" cy="204.5" r="74.5" fill="#FFD400"/><path d="M673.449 146.166c16.335 22.368 51.549 44.361 84.613 43.874 12.129-.18 24.987-1.246 34.799-8.397 9.813-7.151 14.574-22.426 6.775-31.725-8.484-10.107-27.129-5.615-32.567 6.404-5.438 12.019.713 27.031 11.474 34.667 10.761 7.636 24.855 9.06 37.955 7.471 35.341-4.29 67.144-30.234 78.444-63.992M718.478 691.607l-33.616 28.818M705.703 642.212 636 658.925M649.51 588.504l48.137 7.917" stroke="#3B3748" stroke-width="4" stroke-linecap="round" stroke-linejoin="round"/></svg>