<svg width="320" height="864" fill="none" xmlns="http://www.w3.org/2000/svg"><rect width="320" height="320" rx="160" fill="#FFD400"/><path d="M151 163c-2.498 4.717-7.492 8.173-13 9M3 93.1422c2.29853 1.4354 4.87342 2.389 7.5637 2.8012 2.6903.4121 5.4381.2741 8.0717-.4056 2.4568-.649 4.9277-1.9123 6.107-4.1284 1.2958-2.4369.5546-5.7603-1.7015-7.3854-2.2561-1.6251-5.7561-1.2827-7.5924.7911-2.5706 2.8995-1.3225 7.5098.914 10.6688C20.9041 101.9 29.0861 105.638 37 104.91M178.819 200c-61.288 9.505-116.4585-7.28-115.8683 6.677 1.472 5.439 16.8704 6.525 27.0771 8.041-12.9186.154-32.828-4.516-33.1606 2.504-.6681 8.034 21.4338 7.673 31.7267 10.141-8.0438.28-34.8944-7.19-35.5696 1.22C51.398 242.723 131.722 253.651 189 242.245" stroke="#3B3748" stroke-width="4" stroke-linecap="round" stroke-linejoin="round"/><path d="M158.041 200c-.518-14.468 3.935-33.157 10.959-46M179 163l-1 9M178 139.558c7.391-13.255 25.42-19.289 39.263-13.15 13.842 6.139 21.521 23.595 16.721 38.001 6.378-3.347 15.218-.549 18.529 5.864s.492 15.274-5.91 18.574c12.134 2.647 24.782 5.539 34.325 13.516 9.542 7.978 14.719 22.705 8.086 33.238-6.153 9.774-19.791 12.096-30.965 9.293-14.258-3.585-26.594-14.166-32.342-27.737" stroke="#3B3748" stroke-width="4" stroke-linecap="round" stroke-linejoin="round"/><path d="M198 150c2.552 9.873 10.917 18.091 21 20.632-4.548 2.232-7.923 6.62-8.853 11.512-.93 4.892.603 10.174 4.027 13.856M79 82l-2-10M89 72v9M98 83l3-11M106 201l2-18M77 183l2 17M104 105l-4.34 37H77.495L73 105M148 203v-20M120 183l2 19M82 147l-4.4633 32H54v-32M62 214l3-29M37.0756 185 36 220h21M123.098 146l.902 33h-22.304L97 146M73 119l29-1M54 159l24 4M100 159l24-1M37 192l27 2M79 191l28-2M123 194l24-3" stroke="#3B3748" stroke-width="4" stroke-linecap="round" stroke-linejoin="round"/><rect y="452" width="320" height="320" rx="160" fill="#FFD400"/><path d="M172.511 597.158c1.926-6.96 7.358-12.854 14.14-15.343M172 569.513c-30.118 12.451-61.555 21.339-93.6854 26.487-1.5098-11.542-2.5554-23.681 1.7427-34.478 4.2981-10.798 15.6112-19.612 26.8307-17.086 9.519 2.144 15.824 11.356 19.46 20.522 18.011-3.6 29.821-1.898 45.652 4.555ZM107 596c-2.561 6.729-8.9351 11.813-16 12.763 1.4488.988 2.6566 2.296 3.5318 3.825.8752 1.53 1.3949 3.241 1.5198 5.004.0982 1.764-.2018 3.529-.8771 5.159s-1.7083 3.083-3.0208 4.249M118.09 632c-.779 1.53-1.153 3.253-1.081 4.989.071 1.736.584 3.419 1.486 4.871.938 1.427 2.224 2.559 3.721 3.277 1.497.718 3.15.996 4.784.804M140.312 582c10.441 13.07 16.622 29.111 17.688 45.902L131 638M128 595l-1 9M78 596.174c-7.2549-2.786-16.2213-.474-21.1156 5.45-4.8943 5.923-5.3222 14.969-1.0064 21.301-8.412-4.316-19.9399.525-23.5358 9.115-3.5958 8.59.3442 19.192 8.1144 24.533 7.7702 5.34 18.4908 5.669 27.2004 1.956M64 570l-12-1M56 555l11 3M73 548l-11-7M261.286 531.086c-1.286-4.499-.002-9.642 3.246-13.014 3.248-3.373 8.342-4.848 12.89-3.735 3.13.765 6.085 2.863 7.141 5.905 1.055 3.041-.324 6.938-3.348 8.048-2.277.836-4.945-.035-6.666-1.745-1.721-1.71-2.604-4.11-2.952-6.508-.836-5.754 1.296-11.866 5.535-15.843 4.239-3.977 10.468-5.738 16.163-4.551M210.219 564.485c-2.619-10.407-1.251-21.834 3.314-28.288 2.366-3.343 6.971-6.01 10.964-4.825 2.428.72 6.238 4.366 6.632 9.676.845 11.354-10.706 20.974-15.625 28.973 6.185-3.243 12.642-6.436 19.606-6.94 6.964-.503 14.626 2.315 17.863 8.498 3.407 6.511.636 15.251-5.417 19.422-6.052 4.171-14.515 3.973-20.943.395-6.428-3.578-10.874-10.106-12.964-17.148 3.805 9.104 4.529 19.202 2.062 28.756-1.318 5.036-4.884 10.701-10.061 10.146-5.703-.611-7.637-7.977-7.32-13.702.582-10.23 3.765-20.142 9.248-28.801-7.575.125-15.679.1-21.975-4.109-6.296-4.209-9.143-14.293-3.524-19.379 4.941-4.464 12.351-4.485 17.895.293 5.046 4.347 9.076 10.473 10.239 17.029" stroke="#3B3748" stroke-width="4" stroke-linecap="round" stroke-linejoin="round"/><path d="M217.639 586.991c8.435 13.886 13.416 29.717 14.894 45.882M232.539 629.284c9.228-23.529 29.231-42.585 53.187-50.67-11.729 21.276-30.894 40.99-53.187 50.67ZM230.603 647.128c-2.557 3.22-5.452 6.387-7.415 8.753 5.008-3.465 14.746-18.963 19.36-16.38 8.551 5.459-33.724 65.748-87.692 63.738" stroke="#3B3748" stroke-width="4" stroke-linecap="round" stroke-linejoin="round"/><path d="M135.435 668.229c49.415 8.156 82.498-45.594 89.626-36.621 2.558 2.929-7.141 13.581-12.642 19.132 7.913-5.752 19.286-19.904 22.594-16.468 2.937 2.353-.299 7.675-4.411 12.856" stroke="#3B3748" stroke-width="4" stroke-linecap="round" stroke-linejoin="round"/></svg>