<svg width="32" height="32" viewBox="0 0 32 32" fill="none" xmlns="http://www.w3.org/2000/svg">
<path fill-rule="evenodd" clip-rule="evenodd" d="M0 16C0 7.16344 7.16344 0 16 0C24.8366 0 32 7.16344 32 16C32 24.8366 24.8366 32 16 32C7.16344 32 0 24.8366 0 16ZM16.837 21.2507C16.837 21.2507 17.145 21.2171 17.3027 21.0508C17.4472 20.8984 17.4422 20.6108 17.4422 20.6108C17.4422 20.6108 17.423 19.2678 18.0582 19.0695C18.6842 18.8745 19.4881 20.3682 20.3412 20.9426C20.9856 21.3769 21.4747 21.2818 21.4747 21.2818L23.7544 21.2507C23.7544 21.2507 24.9464 21.1786 24.3813 20.2584C24.3345 20.1831 24.0516 19.5775 22.6868 18.3337C21.2569 17.0318 21.4489 17.2423 23.1701 14.9899C24.2185 13.6183 24.6375 12.7809 24.5065 12.4228C24.3821 12.0803 23.6108 12.1713 23.6108 12.1713L21.0449 12.1868C21.0449 12.1868 20.8545 12.1614 20.7135 12.2442C20.5757 12.3253 20.4864 12.5146 20.4864 12.5146C20.4864 12.5146 20.0807 13.5757 19.539 14.4786C18.3962 16.3828 17.9397 16.4836 17.7527 16.3656C17.3178 16.0895 17.4263 15.2578 17.4263 14.6671C17.4263 12.821 17.7118 12.0516 16.8712 11.8525C16.5924 11.7862 16.3871 11.7427 15.6734 11.7354C14.7577 11.7263 13.983 11.7386 13.544 11.9492C13.2518 12.0893 13.0264 12.4023 13.1642 12.4203C13.3336 12.4425 13.7176 12.5219 13.9213 12.794C14.1842 13.1455 14.175 13.9337 14.175 13.9337C14.175 13.9337 14.3261 16.1067 13.8219 16.3763C13.4763 16.5614 13.0022 16.1837 11.983 14.4557C11.4613 13.5707 11.0673 12.5924 11.0673 12.5924C11.0673 12.5924 10.9913 12.4097 10.8553 12.3114C10.6908 12.1926 10.4613 12.1557 10.4613 12.1557L8.02304 12.1713C8.02304 12.1713 7.6566 12.1811 7.5222 12.3376C7.40284 12.4761 7.51302 12.7637 7.51302 12.7637C7.51302 12.7637 9.42205 17.1481 11.584 19.3579C13.5665 21.3834 15.8169 21.2507 15.8169 21.2507H16.837Z" fill="#7100FF"/>
</svg>
